<svg width="129" height="129" viewBox="0 0 129 129" fill="none" xmlns="http://www.w3.org/2000/svg">
<circle cx="64.5" cy="64.5" r="63.5" stroke="#BA935B" stroke-width="2"/>
<path d="M95.1935 29H74.2903C71.0886 29 68.4839 31.6048 68.4839 34.8065V76.6129C68.4839 79.8146 71.0886 82.4194 74.2903 82.4194H95.1935C98.3952 82.4194 101 79.8146 101 76.6129V34.8065C101 31.6048 98.3952 29 95.1935 29ZM74.2903 31.3226H95.1935C97.1143 31.3226 98.6774 32.8857 98.6774 34.8065V38.2903H70.8064V34.8065C70.8064 32.8857 72.3695 31.3226 74.2903 31.3226ZM98.6774 40.6129V70.8065H70.8064V40.6129H98.6774ZM95.1935 80.0968H74.2903C72.3695 80.0968 70.8064 78.5337 70.8064 76.6129V73.129H98.6774V76.6129C98.6774 78.5337 97.1143 80.0968 95.1935 80.0968Z" fill="#BA935B"/>
<path d="M88.2258 33.6453H81.2581V35.9678H88.2258V33.6453Z" fill="#BA935B"/>
<path d="M87.0645 75.4517H82.4193V77.7742H87.0645V75.4517Z" fill="#BA935B"/>
<path d="M96.3548 68.4839V42.9355H73.129V68.4839H96.3548ZM75.4516 45.2581H94.0323V66.1614H75.4516V45.2581Z" fill="#BA935B"/>
<path d="M92.871 33.6453H90.5484V35.9678H92.871V33.6453Z" fill="#BA935B"/>
<path d="M78.9355 33.6453H76.6129V35.9678H78.9355V33.6453Z" fill="#BA935B"/>
<path d="M84.7419 54.5483C82.8212 54.5483 81.2581 56.1114 81.2581 58.0322C81.2581 59.953 82.8212 61.5161 84.7419 61.5161C86.6627 61.5161 88.2258 59.953 88.2258 58.0322C88.2258 56.1114 86.6627 54.5483 84.7419 54.5483ZM84.7419 59.1935C84.1021 59.1935 83.5806 58.6721 83.5806 58.0322C83.5806 57.3923 84.1021 56.8709 84.7419 56.8709C85.3818 56.8709 85.9032 57.3923 85.9032 58.0322C85.9032 58.6721 85.3818 59.1935 84.7419 59.1935Z" fill="#BA935B"/>
<path d="M84.7419 49.9033C80.2594 49.9033 76.6129 53.5498 76.6129 58.0324H78.9355C78.9355 54.8307 81.5403 52.2259 84.7419 52.2259C87.9436 52.2259 90.5484 54.8307 90.5484 58.0324H92.871C92.871 53.5498 89.2245 49.9033 84.7419 49.9033Z" fill="#BA935B"/>
<path d="M85.9032 87.0646H66.1613V46.4194C66.1613 44.4986 64.5982 42.9355 62.6774 42.9355H32.4839C30.5631 42.9355 29 44.4986 29 46.4194V97.5162C29 99.437 30.5631 101 32.4839 101H62.6774C64.5982 101 66.1613 99.437 66.1613 97.5162V96.3549H85.9032C88.465 96.3549 90.5484 94.2715 90.5484 91.7097C90.5484 89.1479 88.465 87.0646 85.9032 87.0646ZM63.8387 97.5162C63.8387 98.1572 63.3173 98.6775 62.6774 98.6775H32.4839C31.844 98.6775 31.3226 98.1572 31.3226 97.5162V46.4194C31.3226 45.7795 31.844 45.2581 32.4839 45.2581H62.6774C63.3173 45.2581 63.8387 45.7795 63.8387 46.4194V87.0646H55.6272C55.3392 85.0532 54.3103 83.2195 52.7054 81.9143C50.7963 80.3628 48.296 79.7647 45.8445 80.278C42.7706 80.919 40.2738 83.4146 39.6328 86.4897C39.1218 88.9412 39.7187 91.4426 41.2714 93.3506C42.8228 95.261 45.1222 96.3549 47.5806 96.3549H63.8387V97.5162ZM85.9032 94.0323H47.5806C45.8248 94.0323 44.1815 93.2496 43.0725 91.8851C41.9635 90.5217 41.5385 88.7275 41.9066 86.9635C42.3618 84.7792 44.1351 83.007 46.3183 82.5506C46.7341 82.4647 47.1521 82.4217 47.5655 82.4217C48.9045 82.4217 50.1982 82.87 51.241 83.7177C52.6044 84.8268 53.3871 86.47 53.3871 88.2259V89.3872H85.9032C87.1841 89.3872 88.2258 90.4288 88.2258 91.7097C88.2258 92.9906 87.1841 94.0323 85.9032 94.0323Z" fill="#BA935B"/>
<path d="M47.5806 84.7419C45.6599 84.7419 44.0968 86.305 44.0968 88.2258C44.0968 90.1466 45.6599 91.7097 47.5806 91.7097V89.3871C46.9408 89.3871 46.4194 88.8668 46.4194 88.2258C46.4194 87.5848 46.9408 87.0645 47.5806 87.0645C48.2205 87.0645 48.7419 87.5848 48.7419 88.2258H51.0645C51.0645 86.305 49.5014 84.7419 47.5806 84.7419Z" fill="#BA935B"/>
<path d="M61.5161 47.5806H33.6451V61.5161H61.5161V47.5806ZM59.1935 59.1935H35.9677V49.9031H59.1935V59.1935Z" fill="#BA935B"/>
<path d="M42.9355 68.4838C42.9355 65.922 40.8521 63.8386 38.2903 63.8386C35.7285 63.8386 33.6451 65.922 33.6451 68.4838C33.6451 71.0456 35.7285 73.1289 38.2903 73.1289C40.8521 73.1289 42.9355 71.0456 42.9355 68.4838ZM38.2903 70.8064C37.0094 70.8064 35.9677 69.7647 35.9677 68.4838C35.9677 67.2029 37.0094 66.1612 38.2903 66.1612C39.5712 66.1612 40.6129 67.2029 40.6129 68.4838C40.6129 69.7647 39.5712 70.8064 38.2903 70.8064Z" fill="#BA935B"/>
</svg>
