<svg width="129" height="129" viewBox="0 0 129 129" fill="none" xmlns="http://www.w3.org/2000/svg">
<circle cx="64.5" cy="64.5" r="63.5" stroke="#BA935B" stroke-width="2"/>
<g clip-path="url(#clip0)">
<path d="M91.6571 92.161L85.7409 81.9137C85.3526 81.2412 84.4923 81.0103 83.8198 81.399C83.1472 81.7874 82.9166 82.6475 83.3051 83.3201L87.5298 90.6372L81.5741 89.0573C80.8253 88.859 80.0576 89.3025 79.8558 90.0501L78.2599 95.9586L69.1007 80.0944C70.7869 80.4581 72.5941 79.8278 73.6685 78.4142L75.3108 76.2529C75.6171 75.85 76.0827 75.6045 76.5881 75.5793L79.2835 75.4455C81.4178 75.3394 83.1593 73.7942 83.5184 71.6875L83.9814 68.9714C84.0659 68.4761 84.3622 68.0445 84.7945 67.7879L87.1473 66.391C88.9731 65.3069 89.7945 63.1379 89.1444 61.1163L88.2951 58.4751C88.1418 57.9987 88.2043 57.481 88.4666 57.0546L89.9181 54.6956C91.0292 52.8902 90.7504 50.5901 89.2402 49.1023L87.2771 47.1684C86.92 46.8167 86.7357 46.328 86.7712 45.8281L86.9678 43.0658C87.1191 40.9414 85.8005 39.0282 83.7613 38.4135L81.1618 37.6298C80.6788 37.4841 80.2866 37.1351 80.0859 36.672L78.9979 34.162C78.1586 32.226 76.0466 31.1148 73.9763 31.522L71.3386 32.0397C70.8409 32.1372 70.329 32.0107 69.9345 31.692L67.8345 29.9969C66.1879 28.6677 63.7977 28.6676 62.151 29.9971L60.0516 31.692C59.657 32.0107 59.1451 32.1372 58.6473 32.0398L56.0095 31.5221C53.939 31.1155 51.8273 32.2258 50.988 34.1615L49.8993 36.6726C49.6986 37.1353 49.3066 37.4842 48.8235 37.6301L46.2245 38.4138C44.1853 39.0284 42.8668 40.9418 43.0181 43.0661L43.2147 45.8284C43.2502 46.3284 43.0659 46.817 42.7087 47.1687L40.7457 49.1024C39.2354 50.5901 38.9565 52.8903 40.0676 54.6958L41.5191 57.0549C41.7814 57.481 41.844 57.9988 41.6907 58.4752L40.8413 61.1165C40.1914 63.1379 41.0125 65.3071 42.8385 66.3912L45.1913 67.788C45.6236 68.0446 45.9199 68.4761 46.0045 68.9716L46.4675 71.6878C46.685 72.9641 47.4106 74.0336 48.4227 74.7025L38.3428 92.161C38.0588 92.6531 38.0987 93.2678 38.444 93.719C38.7892 94.1702 39.3724 94.369 39.9214 94.2236L47.794 92.135L49.9077 99.9603C50.0559 100.509 50.5197 100.915 51.0832 100.988C51.1444 100.996 51.2053 101 51.2657 101C51.7633 101 52.23 100.736 52.4833 100.297L61.689 84.352C62.0774 83.6794 61.847 82.8193 61.1743 82.4309C60.5019 82.0426 59.6415 82.273 59.2533 82.9456L51.7404 95.9585L50.1443 90.05C49.9423 89.3025 49.1745 88.8586 48.426 89.0572L42.4703 90.6371L51.2265 75.4711L53.3971 75.5789C53.9023 75.6041 54.3679 75.8496 54.6742 76.2524L56.3173 78.4141C57.1913 79.564 58.55 80.1955 59.9342 80.1955C60.5768 80.1955 61.2252 80.0592 61.8327 79.7756L64.2688 78.6379C64.4765 78.5409 64.6981 78.4902 64.921 78.4807L77.5165 100.297C77.7698 100.735 78.2364 101 78.7341 101C78.7945 101 78.8556 100.996 78.9166 100.988C79.4801 100.914 79.944 100.509 80.0921 99.96L82.2058 92.1347L90.0785 94.2233C90.628 94.3693 91.2106 94.17 91.5559 93.7187C91.9014 93.2676 91.9413 92.6532 91.6571 92.161ZM63.0788 76.0897C63.0788 76.0898 63.0788 76.0898 63.0788 76.0897L60.6428 77.2275C59.918 77.5657 59.0406 77.3493 58.5567 76.7126L56.9135 74.5508C56.1037 73.4854 54.8729 72.8364 53.5367 72.7702L50.8419 72.6361C50.0347 72.596 49.3762 72.0115 49.2403 71.2148L48.7774 68.4987C48.5541 67.1885 47.7704 66.0478 46.6275 65.3691L44.2747 63.9723C43.5842 63.5624 43.2734 62.7419 43.5193 61.9772L44.3686 59.3361C44.7736 58.0764 44.6083 56.7076 43.9148 55.5806L42.4633 53.2216C42.0431 52.5387 42.1486 51.6688 42.7198 51.1062L44.6828 49.1723C45.6271 48.2422 46.1146 46.9504 46.0204 45.6286L45.8238 42.8661C45.7666 42.0626 46.2652 41.3392 47.0366 41.1066L49.6356 40.3229C50.9129 39.9379 51.9497 39.0151 52.4802 37.7914L53.5689 35.2804C53.8424 34.6497 54.4733 34.2507 55.1435 34.2507C55.2511 34.2507 55.3598 34.261 55.468 34.2822L58.1058 34.7998C59.4217 35.0579 60.775 34.7233 61.8188 33.8806L63.9182 32.1855C64.5409 31.6826 65.445 31.6827 66.0677 32.1853L68.1674 33.8807C69.2109 34.7232 70.5643 35.0582 71.8801 34.7998L74.5177 34.2822C75.3004 34.1293 76.0996 34.5485 76.4169 35.2809L77.5049 37.7909C78.0353 39.0151 79.0723 39.9379 80.3497 40.323L82.9492 41.1067C83.7205 41.3392 84.2192 42.0629 84.1619 42.8664L83.9653 45.6287C83.8713 46.9507 84.3587 48.2425 85.303 49.1724L87.2661 51.1063C87.8373 51.669 87.9428 52.5389 87.5226 53.2218L86.0711 55.5806C85.3776 56.7077 85.2121 58.0766 85.6173 59.3361L86.4666 61.9775C86.7125 62.7422 86.402 63.5625 85.7112 63.9724L83.3584 65.3692C82.2154 66.0479 81.4318 67.1887 81.2085 68.4987L80.7456 71.2149C80.6097 72.0117 79.951 72.5961 79.144 72.6362L76.4488 72.7701C75.1123 72.8363 73.8812 73.4854 73.0715 74.551L71.4292 76.7122C70.9451 77.349 70.0676 77.5654 69.3431 77.2272L66.9072 76.0895C65.6904 75.5218 64.2952 75.5218 63.0788 76.0897Z" fill="#BA935B"/>
<path d="M82.3291 54.5972C82.3291 45.0377 74.5521 37.2607 64.9928 37.2607C55.4335 37.2607 47.6565 45.0377 47.6565 54.5972C47.6565 64.1566 55.4335 71.9336 64.9928 71.9336C74.5521 71.9336 82.3291 64.1563 82.3291 54.5972ZM50.4693 54.5972C50.4693 46.589 56.9845 40.0735 64.9928 40.0735C73.0011 40.0735 79.5163 46.5887 79.5163 54.5972C79.5163 62.6056 73.0011 69.1208 64.9928 69.1208C56.9845 69.1208 50.4693 62.6054 50.4693 54.5972Z" fill="#BA935B"/>
<path d="M68.8143 47.1145C68.1381 46.7327 67.2801 46.9714 66.8983 47.6478L58.9675 61.6963C58.5857 62.3727 58.8243 63.2305 59.5007 63.6123C59.7193 63.7356 59.9565 63.7943 60.1908 63.7943C60.6816 63.7943 61.1583 63.5369 61.4168 63.079L69.3476 49.0306C69.7294 48.3543 69.4906 47.4963 68.8143 47.1145Z" fill="#BA935B"/>
<path d="M65.8056 60.2812C65.8056 62.6834 67.7599 64.6377 70.162 64.6377C72.5642 64.6377 74.5185 62.6834 74.5185 60.2812C74.5185 57.8791 72.5642 55.9248 70.162 55.9248C67.7599 55.9248 65.8056 57.8791 65.8056 60.2812ZM70.1619 58.7376C71.0131 58.7376 71.7055 59.43 71.7055 60.2812C71.7055 61.1324 71.0131 61.8249 70.1619 61.8249C69.3107 61.8249 68.6183 61.1324 68.6183 60.2812C68.6183 59.43 69.3108 58.7376 70.1619 58.7376Z" fill="#BA935B"/>
<path d="M64.2106 48.9128C64.2106 46.5107 62.2563 44.5564 59.8541 44.5564C57.452 44.5564 55.4977 46.5107 55.4977 48.9128C55.4977 51.315 57.452 53.2693 59.8541 53.2693C62.2563 53.2693 64.2106 51.315 64.2106 48.9128ZM58.3105 48.9128C58.3105 48.0616 59.0029 47.3692 59.8541 47.3692C60.7053 47.3692 61.3978 48.0616 61.3978 48.9128C61.3978 49.764 60.7053 50.4565 59.8541 50.4565C59.0029 50.4563 58.3105 49.7639 58.3105 48.9128Z" fill="#BA935B"/>
</g>
<defs>
<clipPath id="clip0">
<rect width="72" height="72" fill="white" transform="translate(29 29)"/>
</clipPath>
</defs>
</svg>
